<?xml version="1.0" encoding="UTF-8"?>
<svg width="10px" height="6px" viewBox="0 0 10 6" version="1.1" xmlns="http://www.w3.org/2000/svg" xmlns:xlink="http://www.w3.org/1999/xlink">
    <!-- Generator: Sketch 49.1 (51147) - http://www.bohemiancoding.com/sketch -->
    <title>chevron</title>
    <desc>Created with Sketch.</desc>
    <defs></defs>
    <g id="All-icons" stroke="none" stroke-width="1" fill="none" fill-rule="evenodd">
        <g id="Chevron" transform="translate(-20.000000, -23.000000)" fill="#666">
            <path d="M25.6556498,29.8708528 C25.7414024,29.9569509 25.8414471,30 25.9414917,30 C26.0558285,30 26.1701653,29.9569509 26.2416257,29.8708528 C26.3845467,29.7130063 26.3845467,29.4690617 26.2416257,29.3112152 L21.9825815,25.00631 L26.2416257,20.7157545 C26.3845467,20.5435583 26.3845467,20.285264 26.2416257,20.1130677 C26.0844127,19.9552212 25.8128629,19.9695709 25.6556498,20.1130677 L21.1393479,24.7049666 L21.1250558,24.7193163 L21.0821795,24.7623654 C21.0678874,24.776715 21.0535954,24.8054144 21.0393033,24.8341138 C21.0250112,24.8771628 21.0107191,24.9058622 21.0107191,24.9345616 C20.996427,24.9776106 20.996427,25.0206597 21.0107191,25.0637087 C21.0107191,25.0924081 21.0107191,25.1067578 21.0250112,25.1354571 C21.0250112,25.1498068 21.0250112,25.1641565 21.0393033,25.1785062 C21.0393033,25.1785062 21.0393033,25.1928559 21.0535954,25.2072056 C21.0678874,25.2359049 21.0964716,25.2646043 21.1250558,25.2933037 L21.1393479,25.3076533 L25.6556498,29.8708528 Z" id="chevron" transform="translate(25.000000, 25.000000) rotate(-90.000000) translate(-25.000000, -25.000000) "></path>
        </g>
    </g>
</svg>